<svg width="16" height="16" viewBox="0 0 16 16" fill="none" xmlns="http://www.w3.org/2000/svg">
<path fill-rule="evenodd" clip-rule="evenodd" d="M15.7073 14.0738C15.6011 14.1797 15.473 14.3151 15.3371 14.4584C14.9981 14.8182 14.5746 15.2654 14.3092 15.4468C12.9126 16.4011 11.0442 15.9445 9.72265 15.3938C7.97924 14.6674 6.08115 13.3285 4.37687 11.624C2.67099 9.91934 1.33218 8.02065 0.605776 6.27824C0.0557756 4.95637 -0.401818 3.08762 0.552651 1.69074C0.733901 1.42512 1.18218 1.00228 1.54149 0.662619C1.68524 0.527182 1.81962 0.399213 1.92587 0.293306C2.1145 0.105612 2.36978 0.000244141 2.63589 0.000244141C2.90199 0.000244141 3.15727 0.105612 3.3459 0.293306L5.91553 2.86218C6.10312 3.0508 6.20842 3.30602 6.20842 3.57204C6.20842 3.83807 6.10312 4.09328 5.91553 4.2819L5.21553 4.98049C4.98175 5.21256 4.82916 5.51391 4.78046 5.83969C4.73176 6.16547 4.78955 6.49827 4.94524 6.78856C5.90805 8.60576 7.39444 10.0919 9.21181 11.0544C9.50203 11.21 9.83476 11.2678 10.1605 11.219C10.4861 11.1702 10.7874 11.0175 11.0192 10.7837L11.7175 10.0851C11.9062 9.89736 12.1614 9.79199 12.4275 9.79199C12.6936 9.79199 12.9489 9.89736 13.1376 10.0851L15.7073 12.6544C15.8949 12.8429 16.0002 13.0981 16.0002 13.3641C16.0002 13.6301 15.8949 13.8852 15.7073 14.0738Z" fill="#3AA7CD"/>
</svg>
