<svg width="14" height="8" viewBox="0 0 14 8" fill="none" xmlns="http://www.w3.org/2000/svg">
<path d="M7.00003 7.37503C6.92616 7.37511 6.85299 7.36059 6.78475 7.33231C6.7165 7.30402 6.65451 7.26253 6.60235 7.21022L0.977348 1.58522C0.757551 1.36543 0.757551 1.0095 0.977348 0.789848C1.19714 0.570191 1.55307 0.570051 1.77272 0.789848L7.00003 6.01716L12.2273 0.789848C12.4471 0.570051 12.8031 0.570051 13.0227 0.789848C13.2424 1.00964 13.2425 1.36557 13.0227 1.58522L7.39772 7.21022C7.34556 7.26253 7.28357 7.30402 7.21532 7.33231C7.14707 7.36059 7.07391 7.37511 7.00003 7.37503Z" fill="#172E49"/>
</svg>
