<svg width="17" height="16" viewBox="0 0 17 16" fill="none" xmlns="http://www.w3.org/2000/svg">
<path fill-rule="evenodd" clip-rule="evenodd" d="M0.53125 2.49684H8.44797C8.41276 2.32552 8.39467 2.15112 8.39395 1.97622L8.39402 1.96131C8.39418 1.78432 8.41211 1.60779 8.44754 1.43438H0.53125C0.237768 1.43438 0 1.67211 0 1.96563C0 2.25914 0.237734 2.49691 0.53125 2.49684ZM7.61756 7.9984V8.00504C7.61484 8.91431 6.87285 9.65394 5.96395 9.65394C5.05587 9.65391 4.31385 8.91507 4.30996 8.00657L4.31 7.99724C4.31113 7.08638 5.05272 6.34598 5.96395 6.34598C6.87441 6.34595 7.6156 7.08601 7.61756 7.99608V7.9984ZM16.4688 7.46871H8.55239C8.58775 7.64151 8.60572 7.81741 8.60605 7.99379V8.00806C8.60558 8.18381 8.58755 8.35908 8.55223 8.53125L16.4688 8.53121C16.7623 8.53121 17 8.29351 17 8C17 7.70645 16.7623 7.46871 16.4688 7.46871ZM3.3751 7.46871H0.53125C0.237768 7.46871 0 7.70648 0 8C0 8.29348 0.237734 8.53125 0.53125 8.53125L3.37553 8.53121C3.34031 8.35988 3.32221 8.18547 3.32151 8.01055L3.32154 7.99565C3.3217 7.81865 3.33964 7.64212 3.3751 7.46871ZM11.0361 15.6882C10.1256 15.6882 9.3844 14.9482 9.38244 14.0382V14.0293C9.38519 13.1199 10.1272 12.3803 11.036 12.3803C11.9442 12.3803 12.6861 13.1192 12.69 14.0277L12.69 14.037C12.6889 14.9478 11.9472 15.6883 11.0361 15.6882ZM16.4688 13.503H13.6248C13.6602 13.6758 13.6782 13.8517 13.6785 14.0281V14.0424C13.678 14.2181 13.66 14.3934 13.6246 14.5655H16.4688C16.7623 14.5655 17 14.3278 17 14.0343C17 13.7408 16.7623 13.503 16.4688 13.503ZM8.44754 13.503H0.53125C0.237768 13.503 0 13.7408 0 14.0343C0 14.3278 0.237734 14.5656 0.53125 14.5656H8.44797C8.41276 14.3942 8.39467 14.2198 8.39395 14.0449L8.39402 14.03C8.39418 13.853 8.41211 13.6765 8.44754 13.503ZM9.38244 1.96719V1.96055C9.38519 1.05125 10.1272 0.311646 11.036 0.311646C11.9442 0.311612 12.6861 1.05051 12.69 1.95902L12.69 1.96832C12.6884 2.87878 11.9472 3.61961 11.036 3.61961C10.1256 3.61961 9.38437 2.87954 9.38244 1.96951V1.96719ZM13.6247 2.49691L16.4688 2.49684C16.7623 2.49684 17 2.25914 17 1.96563C17 1.67208 16.7623 1.43438 16.4688 1.43438H13.6248C13.6602 1.60716 13.6782 1.78305 13.6785 1.95942V1.97369C13.678 2.14946 13.66 2.32473 13.6247 2.49691Z" fill="#172E49"/>
</svg>
