<svg width="36" height="36" viewBox="0 0 36 36" fill="none" xmlns="http://www.w3.org/2000/svg">
<g clip-path="url(#clip0_1_385)">
<path d="M26.2551 0H9.74487C4.37146 0 0 4.37146 0 9.74487V26.2553C0 31.6285 4.37146 35.9999 9.74487 35.9999H26.2553C31.6285 35.9999 35.9999 31.6285 35.9999 26.2553V9.74487C35.9999 4.37146 31.6285 0 26.2551 0ZM33.8894 26.2553C33.8894 30.4647 30.4647 33.8894 26.2551 33.8894H9.74487C5.5352 33.8894 2.1105 30.4647 2.1105 26.2553V9.74487C2.1105 5.5352 5.5352 2.1105 9.74487 2.1105H26.2553C30.4647 2.1105 33.8894 5.5352 33.8894 9.74487V26.2553Z" fill="white"/>
<path d="M17.9997 8.15651C12.5719 8.15651 8.15625 12.5721 8.15625 18C8.15625 23.4278 12.5719 27.8434 17.9997 27.8434C23.4276 27.8434 27.8432 23.4278 27.8432 18C27.8432 12.5721 23.4276 8.15651 17.9997 8.15651ZM17.9997 25.733C13.736 25.733 10.2668 22.2641 10.2668 18C10.2668 13.7362 13.736 10.267 17.9997 10.267C22.2638 10.267 25.7327 13.7362 25.7327 18C25.7327 22.2641 22.2638 25.733 17.9997 25.733ZM28.0786 4.66064C26.4746 4.66064 25.17 5.96557 25.17 7.56926C25.17 9.1733 26.4746 10.4782 28.0786 10.4782C29.6826 10.4782 30.9874 9.1733 30.9874 7.56933C30.9874 5.96536 29.6826 4.66064 28.0786 4.66064ZM28.0786 8.36745C27.6386 8.36745 27.2804 8.00928 27.2804 7.56926C27.2804 7.12903 27.6386 6.77114 28.0786 6.77114C28.5188 6.77114 28.877 7.12903 28.877 7.56926C28.877 8.00928 28.5188 8.36745 28.0786 8.36745Z" fill="white"/>
</g>
<defs>
<clipPath id="clip0_1_385">
<rect width="36" height="36" fill="white"/>
</clipPath>
</defs>
</svg>
