<svg width="30" height="30" viewBox="0 0 30 30" fill="none" xmlns="http://www.w3.org/2000/svg">
<path d="M28.75 16.0834H1.25C0.56 16.0834 0 15.5234 0 14.8334C0 14.1434 0.56 13.5834 1.25 13.5834H28.75C29.44 13.5834 30 14.1434 30 14.8334C30 15.5234 29.44 16.0834 28.75 16.0834ZM28.75 6.5H1.25C0.56 6.5 0 5.94 0 5.25C0 4.56 0.56 4 1.25 4H28.75C29.44 4 30 4.56 30 5.25C30 5.94 29.44 6.5 28.75 6.5ZM28.75 25.6666H1.25C0.56 25.6666 0 25.1066 0 24.4166C0 23.7266 0.56 23.1666 1.25 23.1666H28.75C29.44 23.1666 30 23.7266 30 24.4166C30 25.1066 29.44 25.6666 28.75 25.6666Z" fill="black"/>
</svg>
