<svg width="37" height="37" viewBox="0 0 37 37" fill="none" xmlns="http://www.w3.org/2000/svg">
<g clip-path="url(#clip0_1_378)">
<path d="M36.4335 3.97704C35.9819 3.42259 35.3041 3.11719 34.5248 3.11719C34.1043 3.11719 33.6589 3.20521 33.2008 3.37873L1.87578 15.2473C0.210216 15.8785 -0.0139597 16.8287 0.000638473 17.3388C0.0151644 17.8464 0.290579 18.7753 1.96706 19.3116L8.61032 21.7461L12.1115 29.7604C12.4635 30.8689 13.1989 31.6465 14.1375 31.8987C14.3526 31.9565 14.5745 31.9857 14.7973 31.9855C15.5596 31.9855 16.3401 31.6498 17.0141 31.0167L19.9148 28.2915L26.9924 33.1629C27.6298 33.634 28.3234 33.8827 28.9997 33.8827C30.3723 33.8826 31.4671 32.8778 31.7888 31.3227L36.912 6.54458C37.1225 5.52625 36.9526 4.61444 36.4335 3.97704ZM10.812 21.3699L19.8521 16.5221L13.5517 22.3013C13.4414 22.4028 13.3534 22.5261 13.2932 22.6635C13.233 22.8008 13.202 22.9491 13.2021 23.099C13.2017 23.1101 13.2003 23.121 13.2002 23.1321L13.1785 26.7869L10.812 21.3699ZM15.5297 29.4365C15.4666 29.496 15.3998 29.5515 15.3297 29.6026L15.3562 25.1537L18.0873 27.0335L15.5297 29.4365ZM34.7888 6.10555L29.6657 30.8836C29.614 31.1334 29.4456 31.7146 28.9995 31.7146C28.7912 31.7146 28.5327 31.6074 28.2719 31.4125C28.2607 31.4042 28.2493 31.3961 28.2378 31.3882L20.4351 26.0176L20.4319 26.0154L16.0204 22.9789L27.674 12.2893C27.8686 12.1107 27.9913 11.8673 28.0192 11.6047C28.047 11.3421 27.978 11.0783 27.8252 10.863C27.6723 10.6476 27.4461 10.4955 27.189 10.4351C26.9319 10.3747 26.6616 10.4103 26.4289 10.5351L9.33423 19.7023L2.69083 17.2678C2.68598 17.266 2.68111 17.2643 2.67623 17.2626L33.9691 5.40614C34.2328 5.30619 34.4168 5.28524 34.5248 5.28524C34.5783 5.28524 34.7077 5.29116 34.7524 5.34609C34.8097 5.4164 34.8818 5.65554 34.7888 6.10555Z" fill="white"/>
</g>
<defs>
<clipPath id="clip0_1_378">
<rect width="37" height="37" fill="white"/>
</clipPath>
</defs>
</svg>
